#N canvas 171 -18 1600 817 12;
#X obj 173 211 bng 16 250 50 0 empty empty empty 0 -8 0 10 #fcfcfc #000000 #000000;
#X obj 473 146 bng 15 250 50 0 empty empty empty 17 7 0 10 #fcfcfc #000000 #000000;
#X obj 469 86 receive collision;
#X obj 73 37 loadbang;
#X obj 490 753 dac~;
#X obj 810 650 *~;
#X obj 837 432 line~;
#X obj 940 355 soundfiler;
#X floatatom 940 388 9 0 0 0 - - - 0;
#X obj 941 608 line~;
#X obj 967 412 / 44.1;
#X floatatom 967 435 5 0 0 0 - - - 0;
#X obj 941 514 pack 0 0;
#X obj 973 483 i;
#X msg 941 540 1 \, \$1 \$2;
#X obj 942 268 bng 15 250 50 0 empty empty empty 17 7 0 10 #fcfcfc #000000 #000000;
#X obj 471 321 soundfiler;
#X floatatom 471 354 9 0 0 0 - - - 0;
#X obj 472 574 line~;
#X obj 498 378 / 44.1;
#X floatatom 498 401 5 0 0 0 - - - 0;
#X obj 472 480 pack 0 0;
#X obj 504 449 i;
#X msg 472 506 1 \, \$1 \$2;
#X obj 247 335 soundfiler;
#X floatatom 247 368 9 0 0 0 - - - 0;
#X obj 255 569 line~;
#X obj 274 392 / 44.1;
#X floatatom 274 415 5 0 0 0 - - - 0;
#X obj 255 495 pack 0 0;
#X obj 287 464 i;
#X msg 255 521 1 \, \$1 \$2;
#X obj 911 195 bng 19 250 50 0 empty empty empty 0 -10 0 12 #fcfcfc #000000 #000000;
#X obj 169 126 receive collect;
#X obj 942 211 receive music;
#X msg 940 321 read -resize ./music.wav back;
#X obj 941 679 tabread4~ back;
#X obj 256 640 tabread4~ cole;
#X obj 467 607 tabread4~ coli;
#N canvas 0 50 450 250 (subpatch) 0;
#X array back 7.72834e+06 float 2;
#X coords 0 1 7.72834e+06 -1 200 140 1;
#X restore 1226 324 graph;
#N canvas 0 50 450 250 (subpatch) 0;
#X array cole 71332 float 2;
#X coords 0 1 71332 -1 200 140 1;
#X restore 32 645 graph;
#N canvas 0 50 450 250 (subpatch) 0;
#X array coli 19584 float 2;
#X coords 0 1 19584 -1 200 140 1;
#X restore 617 383 graph;
#X obj 95 326 vsl 15 128 0 1 0 0 empty empty empty 0 -9 0 10 #fcfcfc #000000 #000000 0 1;
#X obj 95 473 pack 0 50;
#X obj 95 514 line~;
#X obj 277 690 *~;
#X msg 94 127 0.8;
#X obj 393 399 vsl 15 128 0 1 0 0 empty empty empty 0 -9 0 10 #fcfcfc #000000 #000000 0 1;
#X obj 393 546 pack 0 50;
#X obj 385 599 line~;
#X obj 473 683 *~;
#X msg 861 275 0.1 30;
#X msg 392 200 0.2;
#X msg 174 294 read -resize ./collect.wav cole;
#X msg 472 232 read -resize ./grunt.wav coli;
#X obj 992 81 receive Pause;
#X obj 1269 265 delay 300;
#X msg 824 213 0.3;
#X msg 732 218 0.3;
#X obj 732 82 receive Resume;
#X obj 731 147 bng 19 250 50 0 empty empty empty 0 -10 0 12 #fcfcfc #000000 #000000;
#X connect 0 0 53 0;
#X connect 1 0 54 0;
#X connect 2 0 1 0;
#X connect 3 0 46 0;
#X connect 3 0 52 0;
#X connect 3 0 57 0;
#X connect 5 0 4 0;
#X connect 5 0 4 1;
#X connect 6 0 5 1;
#X connect 7 0 8 0;
#X connect 8 0 10 0;
#X connect 8 0 12 0;
#X connect 9 0 36 0;
#X connect 10 0 11 0;
#X connect 11 0 13 0;
#X connect 12 0 14 0;
#X connect 13 0 12 1;
#X connect 14 0 9 0;
#X connect 15 0 35 0;
#X connect 15 0 56 0;
#X connect 16 0 17 0;
#X connect 17 0 19 0;
#X connect 17 0 21 0;
#X connect 18 0 38 0;
#X connect 19 0 20 0;
#X connect 20 0 22 0;
#X connect 21 0 23 0;
#X connect 22 0 21 1;
#X connect 23 0 18 0;
#X connect 24 0 25 0;
#X connect 25 0 27 0;
#X connect 25 0 29 0;
#X connect 26 0 37 0;
#X connect 27 0 28 0;
#X connect 28 0 30 0;
#X connect 29 0 31 0;
#X connect 30 0 29 1;
#X connect 31 0 26 0;
#X connect 32 0 51 0;
#X connect 33 0 0 0;
#X connect 34 0 15 0;
#X connect 35 0 7 0;
#X connect 36 0 5 0;
#X connect 37 0 45 0;
#X connect 38 0 50 0;
#X connect 42 0 43 0;
#X connect 43 0 44 0;
#X connect 44 0 45 1;
#X connect 45 0 4 1;
#X connect 45 0 4 0;
#X connect 46 0 42 0;
#X connect 47 0 48 0;
#X connect 48 0 49 0;
#X connect 49 0 50 1;
#X connect 50 0 4 1;
#X connect 50 0 4 0;
#X connect 51 0 6 0;
#X connect 52 0 47 0;
#X connect 53 0 24 0;
#X connect 54 0 16 0;
#X connect 55 0 32 0;
#X connect 56 0 11 0;
#X connect 57 0 6 0;
#X connect 58 0 6 0;
#X connect 59 0 60 0;
#X connect 60 0 58 0;
